<?xml version="1.0" encoding="UTF-8"?>
<svg id="Calque_1" xmlns="http://www.w3.org/2000/svg" version="1.1" viewBox="0 0 1190.55 841.89">
  <!-- Generator: Adobe Illustrator 30.2.1, SVG Export Plug-In . SVG Version: 2.1.1 Build 1)  -->
  <defs>
    <style>
      .st0 {
        fill: none;
        stroke: #fff;
        stroke-linejoin: bevel;
      }

      .st1, .st2 {
        fill: #c41e2a;
      }

      .st1, .st3 {
        font-family: Arial-BoldMT, Arial;
        font-size: 18px;
        font-weight: 700;
      }

      .st4 {
        fill: #00853f;
      }

      .st3, .st5 {
        fill: #fbeb4a;
      }
    </style>
  </defs>
  <path id="path11" class="st4" d="M455.82,360.58l-83.63,48.28-83.63-48.28v-96.57l83.63-48.28,83.63,48.28v96.57Z"/>
  <path id="path7" class="st5" d="M424.29,373.1c-55.03-25.6-100.2,2.72-100.2,2.72l47.81,26.99,52.4-29.7Z"/>
  <path id="path8-9" class="st4" d="M402.64,379.21l-2.43-1.01-2.32,1.2.34-2.36-2.01-1.58,2.64-.45,1.08-2.18,1.29,2.08,2.67.24-1.84,1.73.57,2.32Z"/>
  <path id="path8" class="st4" d="M346.7,379.21l-2.43-1.01-2.32,1.2.34-2.36-2.01-1.58,2.64-.45,1.08-2.18,1.29,2.08,2.67.24-1.84,1.73.57,2.32Z"/>
  <path class="st2" d="M438.96,323.17c-.12-.16-.16-.38-.32-.54-1.1-1.08-2.24-2.1-3.65-2.79-.27-.13-.63-.28-.76-.74-.66-2.33-2.35-3.87-4.31-5.09-1.38-.86-2.94-1.4-4.55-1.71-1.55-.3-3.12-.6-4.69-.51-2.52.14-5.04.47-7.34,1.64-1.69.86-3.3,1.82-4.33,3.49-.13.21-.26.22-.44.24-.61.07-1.25.05-1.84.21-1.41.4-2.92.61-3.91,1.94-.23.31-.43.84-1.13.62-3.33-1.05-6.57-.65-9.76.65-.91.37-1.7.91-2.52,1.44-1.56,1.01-3.15,1.97-4.5,3.28-.34.33-.98.65-.86,1.02.19.58.92.74,1.5.93.14.05.31,0,.47.02,1.77.22,3.54.43,5.6.46-4.33,2.91-8.32,5.82-11.6,9.67-.09-.17-.16-.24-.16-.32.01-3.3-.58-6.58-.42-9.88.03-.65-.13-1.32.33-1.97,1.49-2.11,2.89-4.27,4.34-6.41.54-.79,1.31-1.28,2.24-1.45,2.45-.45,4.87-1.02,7.34-1.4,2.15-.32,4.27-.77,6.45-.67,2.89.14,5.28-.88,7.24-2.97.36-.38.74-.59,1.29-.62,3.12-.14,6.23-.35,9.27-1.13.46-.12.93-.38,1.14-.82.16-.35-.06-.75-.4-.97-.75-.47-1.48-.98-2.29-1.33-1.4-.61-1.58-.71-2.07-1.85-.05-.11-.15-.2-.23-.29-1.63-1.94-3.72-3.3-5.83-4.62-1.84-1.15-3.76-2.18-5.77-2.99-1.96-.79-3.92-1.64-6.08-1.72-.28-.01-.52.05-.72-.37-.77-1.64-2.24-2.65-3.73-3.49-2.14-1.2-4.46-2.08-6.88-2.54-1.91-.36-3.83-.66-5.78-.79-4.55-.3-8.97-.14-12.67,3.06-.32.28-.57.17-.92,0-.92-.42-1.85-.88-2.82-1.1-2.76-.61-5.59-.43-8.32.03-3.95.66-7.75,1.95-11.07,4.29-1.91,1.35-3.79,2.79-4.87,4.98-.09.18-.3.19-.49.22-1.63.24-3.15.77-4.53,1.68-.63.41-.75.91-.14,1.29.74.46.27.61-.12.71-1.06.26-1.91.88-2.74,1.53-.88.69-.86,1.24.07,1.88.27.19.61.35.94.39,2.24.29,4.5.57,6.76.28,1.59-.21,3.06-.2,4.25,1.12.72.8,1.76,1.16,2.76,1.4,1.66.39,3.37.43,5.08.44,1.48,0,3.01-.12,4.25.98.08.07.24.06.35.11,2.39.94,4.77,1.88,7.16,2.82.22.09.37.23.48.42.64,1.12,1.3,2.22,1.91,3.36,1.14,2.11.61,4.38.52,6.58-.08,1.78-.56,3.55-.59,5.33-.04,2.11-.39,4.16-.66,6.3-.25-.13-.48-.19-.61-.33-1.59-1.65-3.16-3.34-4.76-4.98-1.58-1.62-3.24-3.17-4.98-4.62-.52-.43-1.28-.7-1.58-1.24-.33-.6.28-1.24.58-1.84.03-.05,0-.13.02-.18.32-1.09.83-1.42,1.94-1.31.9.09,1.79.15,2.69.2.61.04,1.14-.2,1.65-.52.44-.27.51-.48.12-.84-.54-.51-1.14-.92-1.8-1.24-.47-.23-.95-.33-.54-1.03.14-.24.11-.58-.18-.84-.62-.56-1.15-1.2-1.84-1.7-2.63-1.91-5.61-2.78-8.78-2.96-2.54-.15-5.04.36-7.47,1.1-.29.09-.54.25-.89.08-.84-.4-1.76-.52-2.66-.74-3.71-.9-7.41-.62-11.04.18-2.55.56-5.01,1.56-7.11,3.26-1,.81-1.59,2.04-3.05,2.42-1.64.43-2.93,1.66-4.07,2.88-1.01,1.07-2.02,2.2-2.61,3.62-.45,1.07-.2,1.53.89,1.79.55.13,1.1.2,1.66.17,2.28-.12,4.57-.15,6.8-.82.55-.16,1.31-.56,1.86.08.91,1.07,1.77,2.19,2.67,3.27.29.35.61.58,1.13.69,1.27.28,2.53.49,3.83.57,2.06.12,3.14,1.67,4.17,3.22.43.65.95,1.11,1.68,1.46,1.31.62,2.67.65,4.06.77,1.71.15,3.42.25,5.11-.03,2.47-.41,4.57.52,6.67,1.67-1.03.91-2.27,1.31-3.39,1.94-.33.19-.6.03-.89-.07-1.02-.35-1.98-.38-3.02.09-.91.42-1.94.58-2.92.82-1.3.32-2.31-.59-3.45-.81.22-.44,1.01-.24.97-.85-.04-.58-.58-.79-1.05-1.06-1.47-.86-3.06-1.26-4.74-1.39-1.21-.09-2.44-.03-3.59.32-1.82.56-3.48,1.5-5.08,2.53-.4.25-1.04.58-.96,1.11.07.49.7.58,1.18.75.68.24,1.36.08,2.03.18,2.94.41,5.86.29,8.73-.51.41-.11.88-.46,1.25-.22.98.62,1.92,1.31,3.03,1.75-1.18.9-2.46,1.26-3.78,1.61.66.87,2.63.85,3.62.34,1.47-.76,2.9-1.6,4.51-2.07.57-.17,1.06-.21,1.62.02.79.32,1.6.61,2.42.87.54.17,1.07.18,1.62-.08,1.13-.54,2.27-1.05,3.44-1.51,1.11-.44,2.13-.61,3.25.3,1.88,1.52,3.78,3.01,5.48,4.73.56.57,1.33,1.1,1.49,1.89.17.83.1,1.73-.03,2.6-.26,1.74-.59,3.49-.63,5.24-.06,2.36-.45,4.69-.7,7.02-.23,2.1-.41,4.2-.64,6.3l-.3,2.09-.88,6.05h0s-.4,2.77-.4,2.77l-.52,3.6-1.03,7.11,17.78,10.26h.47l17.68-10.21c-.48-1.84-.95-3.99-1.41-6.52,0,0,0,0,0,0,0-.04-.02-.1-.03-.17-.12-.65-.23-1.32-.35-2.02-.39-2.39-.76-5.08-1.09-8.1-.17-1.56-.33-3.2-.49-4.93h0c-.22-2.6-.45-5.2-.74-7.8-.35-3.09-.92-6.18-.88-9.34.01-1.23-.24-2.28.72-3.42,1-1.17,1.76-2.43,3.5-2.46.17,0,.34-.13.5-.23,1.03-.64,2.08-1.25,3.08-1.94,1.18-.82,2.41-.77,3.55-.1,2.04,1.19,4,1.24,5.94-.11.46-.32.83-.28,1.28-.06.75.38,1.54.57,2.4.62,1.77.1,3.42-.47,5.12-.77.28-.05.59-.04.69-.36.11-.4-.24-.55-.49-.7-1.36-.82-2.76-1.58-4.28-2.09-2.19-.74-4.44.35-5.33,1.58-.31.44-.61.6-1.11.65-1.42.12-2.45-.76-3.53-1.42-1.66-1.01-3.23-1.4-5.12-.52-.99.46-2.01,1.13-3.22.99-.26-.03-.62.16-.74-.18-.08-.23.19-.4.34-.6,1.05-1.43,2.36-2.61,3.67-3.76.75-.66,1.52-1.44,2.7-1.46,1.25-.02,2.49.1,3.71.28,2.57.36,5.1.77,7.68-.17.89-.33,1.78-.81,2.81-.87,1.8-.1,3.28.83,4.63,1.67,1.52.95,2.88.77,4.29.25,1.91-.7,3.82-1.27,5.87-1.15.99.06,1.88-.18,2.75-.64.7-.36,1.36-.99,2.2-.84,1.53.27,3.04-.13,4.56-.02.73.05,1.38-.19,2.05-.47.8-.33.57-.69.17-1.08-1.01-1-2.22-1.8-3.5-2.3-2.45-.94-4.97-1.6-7.69-1.22-2.31.33-4.41,1.06-6.16,2.61-.3.26-.73.64-.59,1.14.14.51.56.72,1.1.83.34.07.73.02,1.3.35-.97.09-1.63.49-2.33.65-.71.17-1.51.2-2.19-.17-1.5-.8-2.97-1.68-4.47-2.49-.4-.22-.47-.48-.3-.82.63-1.31,1.4-2.42,2.7-3.27,1.42-.92,2.69-1.6,4.48-1.3,1.95.33,3.92-.65,5.91-.15.42.1.87.22,1.28.16,2.49-.34,4.76-1.2,6.56-3.03.35-.36.55-.44,1.06-.36,1.68.26,3.37.52,5.09.42.73-.04,1.53-.16,1.91-.75.37-.57-.29-1.02-.62-1.49ZM349.59,321.72c.41.26,1.21-.2,1.27.57.03.48-.53.21-.76.31-.43-.02-.9.08-.9-.54,0-.27.21-.46.4-.34ZM343.74,321.13c1.53-.02,2.63.48,3.19,2.02.18.49.83.64,1.36.78.32.08.7.18.43.69-.18.35-.06.87-.76.78-3.06-.39-5.25-2.2-7.24-4.46,1.01.07,2.02.2,3.03.19ZM337.91,334.11c-.1.45-.56.24-.88.28-.21.03-.44,0-.65,0,0,0,0,.02,0,.03-.99-.08-1.98-.12-2.97-.23-1.21-.14-1.74-1.21-2.52-1.92-.47-.43-.88-.94-1.26-1.46-.77-1.07-1.97-.88-3.03-1.09-1.11-.22-2.24-.37-3.37-.52-1.44-.19-2.28-1.29-3.28-2.13-.31-.26-.19-.48.16-.58.62-.18,1.24-.48,1.87-.48.87-.01,1.59-.49,2.41-.62.48-.08.32-.45.18-.71-.12-.21-.35-.36-.48-.57-.32-.52-.32-.84.44-.97.85-.15,1.2.09,1.54.9.38.89.86,1.75,1.34,2.6.35.63.99,1.01,1.78,1.01,1.15,0,2.27.21,3.41.36.39.05.56.22.77.54.72,1.09,1.38,2.22,2.05,3.34.42.71,1.11,1.15,1.85,1.54.27.14.75.27.66.69ZM345.39,333.25c-2.03-.69-4.02-1.51-6.04-2.22-2.01-.7-2.89-2.51-3.98-4.07-.71-1-1.39-1.78-2.75-1.56-.42.07-.88-.04-1.3.02-1.37.19-2.26-.51-3.02-1.53-.4-.53-.2-.88.36-.88,1.7.01,3.4-.18,5.1.16,1.14.23,2.33.34,3.49.35,1.43,0,2.64.34,3.7,1.37.8.79,1.71,1.5,2.66,2.1.92.58,2.06.67,3.1.8,1.6.2,2.73,1.16,3.77,2.16.59.56.71,1.59,1.13,2.37.36.67.42,1.47,1.01,2.21-2.54-.34-4.94-.5-7.21-1.28ZM400.78,313.01c1.47-2.25,3.65-2.56,6.1-2.61-1.66,1.91-3.56,2.86-6.1,2.61ZM395.38,310.23c.84-.72,1.77-1.33,2.57-2.1.3-.29.7-.15,1.06-.07,1.29.27,2.59.55,4,.84-.52.62-1.32.33-1.84.87-.75.77-1.62,1.43-2.3,2.27-.81,1.01-2.03.46-3.02.81-.34.12-.74.06-1.1.15-.82.2-.97-.18-.88-.88.11-.95.91-1.36,1.52-1.88ZM389.12,302.33c.17-.38.15-1.03.64-.99.81.05,1.75.07,2.31.75.39.48-.28.58-.57.63-.48.09-.99.03-1.48.08-.44.05-.88.17-1.41.28.22-.31.42-.51.52-.75ZM388.64,305.98c-.05.38.08.61.46.79.95.45,1.95.58,2.97.65.5.04,1-.03,1.49.04.31.05.78.05.86.42.09.43-.37.67-.67.79-.57.23-1.03.64-1.58.9-.86.4-1.21,1.15-1.28,2.04-.06.81-.57,1.09-1.25,1.04-1.66-.1-3.26.37-4.91.41-.89.02-1.5.7-2.09,1.24-1.53,1.39-3.28,2.47-4.97,3.75.19-2.07-.07-4.12.41-6.13.28-1.19,1.43-1.36,2.26-1.84,1.61-.93,3.33-1.66,4.95-2.59.69-.4,1.24-1.05,1.8-1.63.23-.23.44-.39.74-.5.94-.33.93-.34.81.63ZM384.73,303.14c.37-.56.7-1.18.93-1.77.28-.73.71-.7,1.09-.69.25,0,.35,0,.44,0,.31.01.74-.03.83.25.07.21-.17.58-.36.8-.63.72-1.29,1.43-1.97,2.11-.28.28-.75.53-1.07.3-.33-.23-.12-.68.1-1ZM373.86,302.38c.01-.09,0-.19,0-.28.28-2.14.01-2.11,2.16-1.84.64.08,1.29.08,1.99.13-.49,1.66-1.8,2.23-3.17,2.68-.57.19-1.09.17-.99-.68ZM373.4,306.35c.45-.85,1.36-1.25,2.24-1.44,1.89-.41,3.21-1.55,4.15-3.12.51-.85,1.09-1.23,2.08-1.12.7.08,1.42.01,2.23.01-.27.85-.8,1.31-1.14,1.89-.24.4-.48.78-.51,1.27-.06,1.36-.41,1.84-1.76,2.25-1.59.49-2.89,1.48-4.29,2.29-.63.37-.95.96-1.15,1.62-.79,2.58-2,5.01-2.75,7.61-.04.14-.1.34-.28.31-.13-.02-.29-.16-.34-.28-.7-1.54-1.68-2.91-2.58-4.32-.3-.47-.21-1.15.02-1.72.53-1.33,1.29-2.52,2.4-3.45.64-.54,1.28-1.02,1.69-1.8ZM366.66,301.77c.13-.48.61-.31.96-.32.89-.03,1.64-.1,2.39-.85.59-.6,1.71-.56,2.61-.41.07,1.25-.57,2.28-.87,3.39-.14.53-.63.93-1.13,1.26-.39.26-.58-.01-.78-.22-.76-.81-1.56-1.53-2.56-2.04-.28-.14-.75-.36-.63-.81ZM352.79,308.23c-3.03.38-6.04.64-9-.42-.17-.06-.32-.17-.61-.33,1.81-.69,3.6-.77,5.25-1.35.24-.09.58.07.72-.29.14-.36-.21-.46-.37-.66-.16-.21-.3-.43-.59-.56,1.14-.8,2.5-.43,3.68-.86.26-.1.41.2.46.37.35,1.11.99,2.13.97,3.35,0,.37-.03.68-.5.74ZM360.43,309.32c-.17.5-.49.63-.98.35-.75-.43-1.62-.59-2.42-.84-.59-.18-.92-.54-.98-.95-.19-1.43-1.06-2.54-1.58-3.81-.26-.62-.04-.75.45-.74,1.28.03,2.53-.14,3.79-.37.2-.04.44-.07.57.18.67,1.34,1.39,2.65,1.76,4.14-.2.69-.38,1.37-.6,2.04ZM364.18,311.19c-1.15-.5-1.19-.52-1.17-1.45.05-.43.12-.92.18-1.41.2-1.63-.33-3.1-.99-4.54-.25-.55-.69-1.27-.31-1.68.4-.43,1.07.14,1.61.33,1.69.59,2.92,1.82,4.14,3.04.68.68.72,1.59.16,2.36-.74,1-1.32,2.11-2.15,3.05-.46.52-.89.55-1.47.3ZM425.64,335.47c-.99.67-2.09.32-3.16.34.97-.73,2.08-.41,3.16-.34ZM412.51,326.28c-.82.71-1.67,1.42-2.59,2-1.17.73-1.52,1.99-2.04,3.07-.56,1.17-1.52,1.55-2.56,1.89-.37.12-.76.19-1.12.37-.46.23-.91.21-1.42.04-2.74-.86-5.55-1.35-8.39-1.7-.06,0-.13.01-.19,0-.36-.14-.91,0-1.05-.4-.13-.39.36-.6.61-.86.71-.75,1.48-1.44,2.12-2.24.52-.65,1.08-.63,1.83-.57,3.05.27,6.12.45,9.17-.08.82-.14,1.63-.48,2.39-.91.81-.46.86-1.61.09-2.21-.67-.52-1.27-1.12-1.96-1.74.6-.39,1.16-.35,1.72-.35.31,0,.68.1.92-.02,1.28-.65,1.85.13,2.33,1.11.08.17.16.34.32.44.47.3.45.87.64,1.3.3.69-.51.6-.81.86ZM419.26,323.02c-.25,1.16-1.88,2.46-3.01,2.39-.26-.02-.48-.05-.66-.25-.82-.91-1.64-1.82-2.64-2.92,2.2-.06,4.09.24,6,.37.26.02.38.1.32.41ZM422.82,325.62c-.88-.05-1.77.25-2.79.08.34-.61.71-1.11.91-1.66.34-.9.96-1.22,1.85-1.06.72.13,1.42.37,2.15.46.38.04.57.2.24.67-.59.86-1.15,1.58-2.36,1.52ZM425.57,326.7c-.14.01-.34-.03-.41-.12-.13-.18.03-.37.15-.49.56-.53,1.1-1.08,1.52-1.74.13-.2.32-.3.56-.25.86.19,1.73.38,2.87.64-1.58,1.09-3.01,1.81-4.69,1.96Z"/>
  <path id="path11-8" class="st0" d="M450.58,357.55l-78.39,45.26-78.39-45.26v-90.51l78.39-45.26,78.39,45.26v90.51Z"/>
  <g>
    <text class="st1" transform="translate(322.5 274.96) rotate(-.61) scale(.94 1) skewX(.41)"><tspan x="0" y="0">map</tspan></text>
    <text class="st3" transform="translate(357.38 274.96) rotate(-.61) scale(.94 1) skewX(.41)"><tspan x="0" y="0">Senegal</tspan></text>
  </g>
</svg>